<svg width="100" height="100" viewBox="0 0 100 100" fill="none" xmlns="http://www.w3.org/2000/svg">
  <!-- Outer sight-line rays (aerial perspective beams) -->
  <line x1="50" y1="10" x2="50" y2="25" stroke="#58A6FF" stroke-width="0.8" opacity="0.4"/>
  <line x1="50" y1="75" x2="50" y2="90" stroke="#58A6FF" stroke-width="0.8" opacity="0.4"/>
  <line x1="10" y1="50" x2="25" y2="50" stroke="#58A6FF" stroke-width="0.8" opacity="0.4"/>
  <line x1="75" y1="50" x2="90" y2="50" stroke="#58A6FF" stroke-width="0.8" opacity="0.4"/>
  <!-- Diagonal rays -->
  <line x1="21" y1="21" x2="32" y2="32" stroke="#58A6FF" stroke-width="0.8" opacity="0.4"/>
  <line x1="68" y1="68" x2="79" y2="79" stroke="#58A6FF" stroke-width="0.8" opacity="0.4"/>
  <line x1="79" y1="21" x2="68" y2="32" stroke="#58A6FF" stroke-width="0.8" opacity="0.4"/>
  <line x1="32" y1="68" x2="21" y2="79" stroke="#58A6FF" stroke-width="0.8" opacity="0.4"/>

  <!-- Inner network connections (constellation pattern from Argus, reshaped as sun corona) -->
  <line x1="50" y1="28" x2="35" y2="38" stroke="#58A6FF" stroke-width="0.5" opacity="0.5"/>
  <line x1="50" y1="28" x2="65" y2="38" stroke="#58A6FF" stroke-width="0.5" opacity="0.5"/>
  <line x1="35" y1="38" x2="28" y2="50" stroke="#58A6FF" stroke-width="0.5" opacity="0.5"/>
  <line x1="65" y1="38" x2="72" y2="50" stroke="#58A6FF" stroke-width="0.5" opacity="0.5"/>
  <line x1="28" y1="50" x2="35" y2="62" stroke="#58A6FF" stroke-width="0.5" opacity="0.5"/>
  <line x1="72" y1="50" x2="65" y2="62" stroke="#58A6FF" stroke-width="0.5" opacity="0.5"/>
  <line x1="35" y1="62" x2="50" y2="72" stroke="#58A6FF" stroke-width="0.5" opacity="0.5"/>
  <line x1="65" y1="62" x2="50" y2="72" stroke="#58A6FF" stroke-width="0.5" opacity="0.5"/>
  <!-- Cross connections -->
  <line x1="35" y1="38" x2="65" y2="38" stroke="#58A6FF" stroke-width="0.5" opacity="0.35"/>
  <line x1="35" y1="62" x2="65" y2="62" stroke="#58A6FF" stroke-width="0.5" opacity="0.35"/>
  <line x1="28" y1="50" x2="72" y2="50" stroke="#58A6FF" stroke-width="0.5" opacity="0.35"/>
  <!-- Diagonal cross -->
  <line x1="35" y1="38" x2="65" y2="62" stroke="#58A6FF" stroke-width="0.5" opacity="0.25"/>
  <line x1="65" y1="38" x2="35" y2="62" stroke="#58A6FF" stroke-width="0.5" opacity="0.25"/>

  <!-- Ray tip nodes -->
  <circle cx="50" cy="10" r="2.4" fill="#58A6FF" opacity="0.8"/>
  <circle cx="50" cy="90" r="2.4" fill="#58A6FF" opacity="0.8"/>
  <circle cx="10" cy="50" r="2.4" fill="#58A6FF" opacity="0.8"/>
  <circle cx="90" cy="50" r="2.4" fill="#58A6FF" opacity="0.8"/>
  <circle cx="21" cy="21" r="2" fill="#58A6FF" opacity="0.7"/>
  <circle cx="79" cy="79" r="2" fill="#58A6FF" opacity="0.7"/>
  <circle cx="79" cy="21" r="2" fill="#58A6FF" opacity="0.7"/>
  <circle cx="21" cy="79" r="2" fill="#58A6FF" opacity="0.7"/>

  <!-- Corona nodes (hexagonal ring) -->
  <circle cx="50" cy="28" r="3.2" fill="#58A6FF" opacity="0.9"/>
  <circle cx="50" cy="72" r="3.2" fill="#58A6FF" opacity="0.9"/>
  <circle cx="28" cy="50" r="3.2" fill="#58A6FF" opacity="0.9"/>
  <circle cx="72" cy="50" r="3.2" fill="#58A6FF" opacity="0.9"/>
  <circle cx="35" cy="38" r="3" fill="#58A6FF" opacity="0.9"/>
  <circle cx="65" cy="38" r="3" fill="#58A6FF" opacity="0.9"/>
  <circle cx="35" cy="62" r="3" fill="#58A6FF" opacity="0.9"/>
  <circle cx="65" cy="62" r="3" fill="#58A6FF" opacity="0.9"/>

  <!-- Centre core (the sun / eye) -->
  <circle cx="50" cy="50" r="8" fill="#58A6FF" opacity="0.15"/>
  <circle cx="50" cy="50" r="5.6" fill="#58A6FF" opacity="1"/>
</svg>
